<?xml version="1.0" encoding="UTF-8" standalone="no"?>
<!DOCTYPE svg PUBLIC "-//W3C//DTD SVG 1.1//EN" "http://www.w3.org/Graphics/SVG/1.1/DTD/svg11.dtd">
<svg width="100%" height="100%" viewBox="0 0 263 119" version="1.1" xmlns="http://www.w3.org/2000/svg" xmlns:xlink="http://www.w3.org/1999/xlink" xml:space="preserve" xmlns:serif="http://www.serif.com/" style="fill-rule:evenodd;clip-rule:evenodd;stroke-linejoin:round;stroke-miterlimit:2;">
    <g id="g930" transform="matrix(1,0,0,1,-22.6,-95.9)">
        <g id="Layer_4" transform="matrix(1,0,0,1,8,0)">
            <path id="path45" d="M264.7,128.3C268.2,122.5 273.4,119.2 273.4,119.2L234.1,111.9C233.1,113.6 231.9,115.8 230.6,118.2C246.1,119.8 258.6,125.2 264.7,128.3Z" style="fill:rgb(204,235,197);fill-rule:nonzero;"/>
            <path id="path47" d="M191.7,123.9C204.3,118.4 216.9,117.2 228.1,118.1C229.4,115.6 230.7,113.4 231.7,111.5L184.8,102.8C183,105.9 176.4,117.4 171.1,129.7C177.4,128.9 184.3,127.1 191.7,123.9Z" style="fill:rgb(222,203,228);fill-rule:nonzero;"/>
            <path id="path49" d="M168.3,130.1C173.4,118 179.9,106.5 182.3,102.4L149.5,96.3C149.5,96.3 140.7,108 133.2,122.7C139.2,126.1 151.6,131.4 168.3,130.1Z" style="fill:rgb(204,235,197);fill-rule:nonzero;"/>
            <path id="path51" d="M141.1,200.3C147.3,208.8 152.8,214.5 152.8,214.5L180.2,208.7C177.2,202.8 172.4,193.3 168.5,183.4C154.7,185.8 146,194 141.1,200.3Z" style="fill:rgb(222,203,228);fill-rule:nonzero;"/>
            <path id="path53" d="M167.5,181.2C163.8,171.7 161,162.1 161.3,155.2C161.5,148.8 164,140.6 167.3,132.5C165.8,132.6 164.4,132.6 163,132.6C156.3,132.6 150.5,131.6 146,130.4C140,128.8 135.3,126.6 132.2,124.8C126.9,135.4 122.5,147.3 122.5,157.4C122.5,171 131.5,186.8 139.7,198.3C144.9,191.8 153.8,183.7 167.5,181.2Z" style="fill:rgb(251,180,174);fill-rule:nonzero;"/>
            <path id="path55" d="M225.3,190.2C216.6,190.9 210.5,189.1 203.7,187.2C196.6,185.1 188.6,182.8 175.8,182.9C174.1,182.9 172.5,183 170.9,183.2C174.9,193.1 179.7,202.7 182.6,208.3L228.5,198.6C228.5,198.5 228.4,198.4 228.4,198.3C227.4,195.9 226.3,193.1 225.3,190.2Z" style="fill:rgb(255,255,204);fill-rule:nonzero;"/>
            <path id="path57" d="M175.7,180.5L176.4,180.5C189.2,180.5 197.2,182.8 204.3,184.9C210.7,186.7 216.4,188.4 224.5,187.9C221.3,178.7 218,167.4 217.1,155.5C216.3,144.5 221.8,130.7 226.9,120.4C216.3,119.7 204.5,120.9 192.6,126.1C184.4,129.7 176.8,131.5 169.9,132.3C166.4,140.6 163.7,149.1 163.5,155.4C163.3,162 166.1,171.5 169.8,180.9C171.7,180.6 173.7,180.5 175.7,180.5Z" style="fill:rgb(254,217,166);fill-rule:nonzero;"/>
            <path id="path59" d="M235.3,188.5C232.5,189.2 230,189.6 227.7,189.9C228.7,192.6 229.7,195.2 230.5,197.4C230.6,197.6 230.7,197.8 230.7,198L248.3,194.3C260.9,191.6 275,179.3 273.4,165.5C267.8,171.6 254.5,183.8 235.3,188.5Z" style="fill:rgb(251,180,174);fill-rule:nonzero;"/>
            <path id="path61" d="M226.8,187.6C229.2,187.3 231.8,186.9 234.7,186.2C254.9,181.3 268.4,167.8 273,162.7C272.2,159.9 270.8,157 268.5,154.2C260.4,144.6 260.9,136.4 263.7,130.4C257.6,127.3 245,121.9 229.6,120.5C224.4,130.6 218.7,144.6 219.5,155.2C220.3,167.2 223.6,178.4 226.8,187.6Z" style="fill:rgb(179,205,227);fill-rule:nonzero;"/>
        </g>
        <g id="Layer_2" transform="matrix(1,0,0,1,110.63,5.06478)">
            <g transform="matrix(1,0,0,1,-130.52,20.4333)">
                <g transform="matrix(76,0,0,76,46.3601,150.29)">
                    <path d="M0.417,-0.528L0.543,-0.528L0.456,-0.018C0.449,0.031 0.433,0.072 0.407,0.106C0.382,0.14 0.349,0.166 0.309,0.184C0.27,0.201 0.226,0.21 0.178,0.208C0.154,0.208 0.131,0.204 0.108,0.198C0.086,0.191 0.064,0.182 0.045,0.169C0.025,0.157 0.007,0.141 -0.007,0.123L0.061,0.041C0.075,0.06 0.092,0.075 0.111,0.086C0.131,0.096 0.152,0.102 0.176,0.102C0.202,0.103 0.224,0.098 0.244,0.089C0.263,0.079 0.279,0.065 0.292,0.047C0.305,0.029 0.313,0.008 0.317,-0.017L0.385,-0.413L0.417,-0.528ZM0.027,-0.254L0.028,-0.265C0.032,-0.298 0.04,-0.331 0.052,-0.363C0.063,-0.396 0.079,-0.426 0.099,-0.453C0.119,-0.479 0.143,-0.501 0.172,-0.516C0.2,-0.532 0.234,-0.539 0.272,-0.538C0.307,-0.537 0.335,-0.529 0.357,-0.512C0.379,-0.495 0.396,-0.474 0.407,-0.448C0.419,-0.422 0.426,-0.393 0.43,-0.363C0.434,-0.332 0.435,-0.303 0.434,-0.274L0.431,-0.25C0.426,-0.221 0.417,-0.191 0.405,-0.16C0.393,-0.129 0.377,-0.101 0.358,-0.074C0.339,-0.048 0.316,-0.027 0.289,-0.012C0.263,0.004 0.232,0.011 0.198,0.01C0.162,0.009 0.133,0.001 0.11,-0.015C0.086,-0.032 0.068,-0.053 0.055,-0.079C0.042,-0.105 0.033,-0.133 0.029,-0.164C0.025,-0.194 0.024,-0.225 0.027,-0.254ZM0.166,-0.265L0.165,-0.255C0.163,-0.24 0.162,-0.223 0.163,-0.206C0.163,-0.189 0.166,-0.172 0.171,-0.156C0.175,-0.14 0.183,-0.127 0.194,-0.117C0.205,-0.107 0.221,-0.101 0.24,-0.1C0.266,-0.099 0.288,-0.105 0.306,-0.117C0.325,-0.129 0.339,-0.145 0.351,-0.165C0.362,-0.185 0.369,-0.206 0.373,-0.229L0.383,-0.293C0.384,-0.309 0.384,-0.325 0.382,-0.34C0.381,-0.356 0.377,-0.37 0.371,-0.383C0.365,-0.396 0.356,-0.407 0.344,-0.415C0.333,-0.423 0.318,-0.428 0.299,-0.428C0.277,-0.429 0.258,-0.424 0.243,-0.414C0.227,-0.404 0.214,-0.391 0.203,-0.374C0.193,-0.358 0.184,-0.34 0.178,-0.321C0.172,-0.301 0.168,-0.283 0.166,-0.265Z" style="fill:none;fill-rule:nonzero;stroke:white;stroke-width:0.04px;"/>
                </g>
                <g transform="matrix(76,0,0,76,86.9582,150.29)">
                    <path d="M0.026,-0.256L0.027,-0.266C0.031,-0.304 0.04,-0.339 0.055,-0.372C0.069,-0.405 0.088,-0.434 0.111,-0.459C0.135,-0.485 0.163,-0.504 0.195,-0.518C0.227,-0.533 0.263,-0.539 0.302,-0.538C0.341,-0.537 0.374,-0.53 0.401,-0.515C0.429,-0.501 0.452,-0.481 0.47,-0.456C0.487,-0.431 0.5,-0.403 0.507,-0.371C0.514,-0.339 0.516,-0.305 0.513,-0.27L0.512,-0.259C0.508,-0.222 0.498,-0.187 0.484,-0.155C0.47,-0.122 0.451,-0.093 0.427,-0.068C0.403,-0.043 0.375,-0.024 0.343,-0.01C0.311,0.004 0.275,0.011 0.236,0.01C0.198,0.009 0.166,0.002 0.138,-0.013C0.11,-0.027 0.087,-0.047 0.07,-0.071C0.052,-0.096 0.039,-0.124 0.032,-0.156C0.025,-0.187 0.023,-0.221 0.026,-0.256ZM0.164,-0.266L0.163,-0.256C0.162,-0.24 0.162,-0.223 0.162,-0.205C0.163,-0.187 0.166,-0.171 0.171,-0.155C0.176,-0.139 0.184,-0.126 0.196,-0.116C0.207,-0.105 0.223,-0.1 0.244,-0.099C0.266,-0.099 0.285,-0.103 0.3,-0.113C0.316,-0.122 0.329,-0.135 0.339,-0.151C0.349,-0.167 0.357,-0.185 0.363,-0.204C0.369,-0.223 0.372,-0.242 0.374,-0.26L0.375,-0.27C0.377,-0.286 0.377,-0.302 0.377,-0.32C0.376,-0.339 0.373,-0.356 0.368,-0.372C0.363,-0.388 0.355,-0.401 0.343,-0.412C0.331,-0.422 0.315,-0.428 0.294,-0.428C0.273,-0.429 0.254,-0.425 0.238,-0.415C0.223,-0.405 0.21,-0.392 0.2,-0.375C0.189,-0.359 0.182,-0.341 0.176,-0.322C0.17,-0.303 0.166,-0.284 0.164,-0.266Z" style="fill:none;fill-rule:nonzero;stroke:white;stroke-width:0.04px;"/>
                </g>
                <g transform="matrix(76,0,0,76,130.096,150.29)">
                    <path d="M0.227,-0.339L0.214,-0.265L0.018,-0.265L0.031,-0.339L0.227,-0.339Z" style="fill:none;fill-rule:nonzero;stroke:white;stroke-width:0.04px;"/>
                </g>
                <g transform="matrix(76,0,0,76,148.391,150.29)">
                </g>
                <g transform="matrix(76,0,0,76,46.3601,150.29)">
                    <path d="M0.417,-0.528L0.543,-0.528L0.456,-0.018C0.449,0.031 0.433,0.072 0.407,0.106C0.382,0.14 0.349,0.166 0.309,0.184C0.27,0.201 0.226,0.21 0.178,0.208C0.154,0.208 0.131,0.204 0.108,0.198C0.086,0.191 0.064,0.182 0.045,0.169C0.025,0.157 0.007,0.141 -0.007,0.123L0.061,0.041C0.075,0.06 0.092,0.075 0.111,0.086C0.131,0.096 0.152,0.102 0.176,0.102C0.202,0.103 0.224,0.098 0.244,0.089C0.263,0.079 0.279,0.065 0.292,0.047C0.305,0.029 0.313,0.008 0.317,-0.017L0.385,-0.413L0.417,-0.528ZM0.027,-0.254L0.028,-0.265C0.032,-0.298 0.04,-0.331 0.052,-0.363C0.063,-0.396 0.079,-0.426 0.099,-0.453C0.119,-0.479 0.143,-0.501 0.172,-0.516C0.2,-0.532 0.234,-0.539 0.272,-0.538C0.307,-0.537 0.335,-0.529 0.357,-0.512C0.379,-0.495 0.396,-0.474 0.407,-0.448C0.419,-0.422 0.426,-0.393 0.43,-0.363C0.434,-0.332 0.435,-0.303 0.434,-0.274L0.431,-0.25C0.426,-0.221 0.417,-0.191 0.405,-0.16C0.393,-0.129 0.377,-0.101 0.358,-0.074C0.339,-0.048 0.316,-0.027 0.289,-0.012C0.263,0.004 0.232,0.011 0.198,0.01C0.162,0.009 0.133,0.001 0.11,-0.015C0.086,-0.032 0.068,-0.053 0.055,-0.079C0.042,-0.105 0.033,-0.133 0.029,-0.164C0.025,-0.194 0.024,-0.225 0.027,-0.254ZM0.166,-0.265L0.165,-0.255C0.163,-0.24 0.162,-0.223 0.163,-0.206C0.163,-0.189 0.166,-0.172 0.171,-0.156C0.175,-0.14 0.183,-0.127 0.194,-0.117C0.205,-0.107 0.221,-0.101 0.24,-0.1C0.266,-0.099 0.288,-0.105 0.306,-0.117C0.325,-0.129 0.339,-0.145 0.351,-0.165C0.362,-0.185 0.369,-0.206 0.373,-0.229L0.383,-0.293C0.384,-0.309 0.384,-0.325 0.382,-0.34C0.381,-0.356 0.377,-0.37 0.371,-0.383C0.365,-0.396 0.356,-0.407 0.344,-0.415C0.333,-0.423 0.318,-0.428 0.299,-0.428C0.277,-0.429 0.258,-0.424 0.243,-0.414C0.227,-0.404 0.214,-0.391 0.203,-0.374C0.193,-0.358 0.184,-0.34 0.178,-0.321C0.172,-0.301 0.168,-0.283 0.166,-0.265Z" style="fill:rgb(34,36,41);fill-rule:nonzero;"/>
                </g>
                <g transform="matrix(76,0,0,76,86.9582,150.29)">
                    <path d="M0.026,-0.256L0.027,-0.266C0.031,-0.304 0.04,-0.339 0.055,-0.372C0.069,-0.405 0.088,-0.434 0.111,-0.459C0.135,-0.485 0.163,-0.504 0.195,-0.518C0.227,-0.533 0.263,-0.539 0.302,-0.538C0.341,-0.537 0.374,-0.53 0.401,-0.515C0.429,-0.501 0.452,-0.481 0.47,-0.456C0.487,-0.431 0.5,-0.403 0.507,-0.371C0.514,-0.339 0.516,-0.305 0.513,-0.27L0.512,-0.259C0.508,-0.222 0.498,-0.187 0.484,-0.155C0.47,-0.122 0.451,-0.093 0.427,-0.068C0.403,-0.043 0.375,-0.024 0.343,-0.01C0.311,0.004 0.275,0.011 0.236,0.01C0.198,0.009 0.166,0.002 0.138,-0.013C0.11,-0.027 0.087,-0.047 0.07,-0.071C0.052,-0.096 0.039,-0.124 0.032,-0.156C0.025,-0.187 0.023,-0.221 0.026,-0.256ZM0.164,-0.266L0.163,-0.256C0.162,-0.24 0.162,-0.223 0.162,-0.205C0.163,-0.187 0.166,-0.171 0.171,-0.155C0.176,-0.139 0.184,-0.126 0.196,-0.116C0.207,-0.105 0.223,-0.1 0.244,-0.099C0.266,-0.099 0.285,-0.103 0.3,-0.113C0.316,-0.122 0.329,-0.135 0.339,-0.151C0.349,-0.167 0.357,-0.185 0.363,-0.204C0.369,-0.223 0.372,-0.242 0.374,-0.26L0.375,-0.27C0.377,-0.286 0.377,-0.302 0.377,-0.32C0.376,-0.339 0.373,-0.356 0.368,-0.372C0.363,-0.388 0.355,-0.401 0.343,-0.412C0.331,-0.422 0.315,-0.428 0.294,-0.428C0.273,-0.429 0.254,-0.425 0.238,-0.415C0.223,-0.405 0.21,-0.392 0.2,-0.375C0.189,-0.359 0.182,-0.341 0.176,-0.322C0.17,-0.303 0.166,-0.284 0.164,-0.266Z" style="fill:rgb(34,36,41);fill-rule:nonzero;"/>
                </g>
                <g transform="matrix(76,0,0,76,130.096,150.29)">
                    <path d="M0.227,-0.339L0.214,-0.265L0.018,-0.265L0.031,-0.339L0.227,-0.339Z" style="fill:rgb(34,36,41);fill-rule:nonzero;"/>
                </g>
                <g transform="matrix(76,0,0,76,148.391,150.29)">
                </g>
            </g>
            <g transform="matrix(1,0,0,1,-25.3679,20.4333)">
                <g transform="matrix(76,0,0,76,46.3601,150.29)">
                    <path d="M0.263,-0.017C0.291,-0.017 0.317,-0.022 0.342,-0.031C0.367,-0.041 0.388,-0.057 0.405,-0.078C0.421,-0.099 0.431,-0.127 0.433,-0.16L0.459,-0.16C0.457,-0.124 0.447,-0.094 0.429,-0.068C0.411,-0.043 0.387,-0.024 0.358,-0.01C0.329,0.003 0.298,0.01 0.263,0.01C0.229,0.01 0.198,0.003 0.172,-0.01C0.145,-0.022 0.122,-0.041 0.104,-0.064C0.085,-0.087 0.071,-0.115 0.062,-0.147C0.052,-0.18 0.047,-0.215 0.047,-0.254L0.047,-0.274C0.047,-0.313 0.052,-0.349 0.062,-0.381C0.071,-0.413 0.085,-0.441 0.104,-0.464C0.122,-0.488 0.145,-0.506 0.171,-0.519C0.198,-0.532 0.228,-0.538 0.262,-0.538C0.296,-0.538 0.328,-0.531 0.357,-0.517C0.386,-0.503 0.41,-0.483 0.429,-0.456C0.447,-0.428 0.457,-0.394 0.459,-0.354L0.433,-0.354C0.431,-0.389 0.422,-0.418 0.406,-0.442C0.39,-0.465 0.369,-0.482 0.344,-0.494C0.318,-0.506 0.291,-0.512 0.262,-0.512C0.23,-0.512 0.202,-0.506 0.178,-0.493C0.154,-0.481 0.135,-0.464 0.119,-0.442C0.104,-0.421 0.092,-0.395 0.085,-0.367C0.077,-0.338 0.074,-0.307 0.074,-0.274L0.074,-0.254C0.074,-0.221 0.077,-0.19 0.085,-0.161C0.092,-0.132 0.104,-0.107 0.119,-0.086C0.135,-0.064 0.155,-0.047 0.178,-0.035C0.202,-0.023 0.231,-0.017 0.263,-0.017Z" style="fill:none;fill-rule:nonzero;stroke:white;stroke-width:0.05px;"/>
                </g>
                <g transform="matrix(76,0,0,76,87.1967,150.29)">
                    <path d="M0.416,-0.099L0.416,-0.372C0.416,-0.401 0.409,-0.426 0.397,-0.447C0.384,-0.468 0.366,-0.484 0.342,-0.495C0.318,-0.506 0.289,-0.512 0.254,-0.512C0.222,-0.512 0.194,-0.506 0.168,-0.495C0.143,-0.484 0.122,-0.468 0.108,-0.449C0.093,-0.429 0.085,-0.407 0.085,-0.383L0.059,-0.384C0.059,-0.404 0.064,-0.424 0.073,-0.442C0.083,-0.461 0.097,-0.477 0.114,-0.492C0.131,-0.506 0.152,-0.517 0.176,-0.526C0.2,-0.534 0.226,-0.538 0.254,-0.538C0.291,-0.538 0.324,-0.532 0.352,-0.52C0.38,-0.507 0.402,-0.489 0.418,-0.464C0.434,-0.439 0.442,-0.408 0.442,-0.371L0.442,-0.106C0.442,-0.088 0.443,-0.069 0.446,-0.049C0.448,-0.03 0.451,-0.015 0.456,-0.004L0.456,-0L0.425,-0C0.422,-0.013 0.42,-0.028 0.418,-0.046C0.416,-0.064 0.416,-0.082 0.416,-0.099ZM0.427,-0.295L0.428,-0.268L0.291,-0.268C0.256,-0.268 0.226,-0.265 0.199,-0.258C0.172,-0.251 0.149,-0.242 0.13,-0.23C0.111,-0.218 0.097,-0.204 0.086,-0.187C0.076,-0.17 0.071,-0.152 0.071,-0.132C0.071,-0.111 0.077,-0.091 0.089,-0.074C0.1,-0.056 0.116,-0.042 0.137,-0.032C0.157,-0.021 0.181,-0.016 0.208,-0.016C0.245,-0.016 0.278,-0.022 0.306,-0.034C0.335,-0.047 0.359,-0.064 0.379,-0.086C0.399,-0.108 0.414,-0.134 0.424,-0.165L0.436,-0.14C0.43,-0.122 0.421,-0.104 0.408,-0.086C0.396,-0.068 0.381,-0.052 0.362,-0.038C0.343,-0.023 0.321,-0.012 0.295,-0.003C0.27,0.005 0.24,0.01 0.208,0.01C0.175,0.01 0.146,0.004 0.122,-0.009C0.097,-0.021 0.078,-0.038 0.065,-0.059C0.052,-0.081 0.045,-0.106 0.045,-0.134C0.045,-0.157 0.05,-0.179 0.062,-0.198C0.073,-0.218 0.089,-0.235 0.11,-0.25C0.131,-0.264 0.156,-0.275 0.187,-0.283C0.217,-0.291 0.251,-0.295 0.289,-0.295L0.427,-0.295Z" style="fill:none;fill-rule:nonzero;stroke:white;stroke-width:0.05px;"/>
                </g>
                <g transform="matrix(76,0,0,76,129.592,150.29)">
                    <path d="M0.11,-0.528L0.11,-0L0.084,-0L0.084,-0.528L0.11,-0.528ZM0.32,-0.533L0.317,-0.509C0.312,-0.51 0.306,-0.511 0.301,-0.511C0.295,-0.512 0.289,-0.512 0.283,-0.512C0.253,-0.512 0.227,-0.506 0.205,-0.494C0.183,-0.482 0.164,-0.465 0.149,-0.444C0.134,-0.423 0.123,-0.399 0.116,-0.371C0.109,-0.344 0.105,-0.314 0.105,-0.283L0.087,-0.282C0.087,-0.319 0.091,-0.353 0.099,-0.384C0.107,-0.416 0.119,-0.443 0.135,-0.466C0.152,-0.489 0.172,-0.506 0.197,-0.519C0.221,-0.532 0.25,-0.538 0.283,-0.538C0.291,-0.538 0.298,-0.538 0.304,-0.537C0.31,-0.536 0.316,-0.534 0.32,-0.533Z" style="fill:none;fill-rule:nonzero;stroke:white;stroke-width:0.05px;"/>
                </g>
                <g transform="matrix(76,0,0,76,159.147,150.29)">
                    <path d="M0.263,-0.528L0.263,-0.501L0.019,-0.501L0.019,-0.528L0.263,-0.528ZM0.116,-0.671L0.143,-0.671L0.143,-0.126C0.143,-0.096 0.147,-0.072 0.154,-0.056C0.161,-0.041 0.171,-0.03 0.183,-0.025C0.196,-0.019 0.209,-0.017 0.223,-0.017C0.233,-0.017 0.242,-0.017 0.25,-0.018C0.257,-0.019 0.266,-0.02 0.275,-0.021L0.279,0.004C0.272,0.006 0.263,0.008 0.251,0.009C0.24,0.009 0.231,0.01 0.224,0.01C0.202,0.01 0.182,0.006 0.166,-0.002C0.15,-0.01 0.138,-0.024 0.129,-0.044C0.121,-0.064 0.116,-0.091 0.116,-0.126L0.116,-0.671Z" style="fill:none;fill-rule:nonzero;stroke:white;stroke-width:0.05px;"/>
                </g>
                <g transform="matrix(76,0,0,76,183.194,150.29)">
                </g>
                <g transform="matrix(76,0,0,76,46.3601,150.29)">
                    <path d="M0.263,-0.017C0.291,-0.017 0.317,-0.022 0.342,-0.031C0.367,-0.041 0.388,-0.057 0.405,-0.078C0.421,-0.099 0.431,-0.127 0.433,-0.16L0.459,-0.16C0.457,-0.124 0.447,-0.094 0.429,-0.068C0.411,-0.043 0.387,-0.024 0.358,-0.01C0.329,0.003 0.298,0.01 0.263,0.01C0.229,0.01 0.198,0.003 0.172,-0.01C0.145,-0.022 0.122,-0.041 0.104,-0.064C0.085,-0.087 0.071,-0.115 0.062,-0.147C0.052,-0.18 0.047,-0.215 0.047,-0.254L0.047,-0.274C0.047,-0.313 0.052,-0.349 0.062,-0.381C0.071,-0.413 0.085,-0.441 0.104,-0.464C0.122,-0.488 0.145,-0.506 0.171,-0.519C0.198,-0.532 0.228,-0.538 0.262,-0.538C0.296,-0.538 0.328,-0.531 0.357,-0.517C0.386,-0.503 0.41,-0.483 0.429,-0.456C0.447,-0.428 0.457,-0.394 0.459,-0.354L0.433,-0.354C0.431,-0.389 0.422,-0.418 0.406,-0.442C0.39,-0.465 0.369,-0.482 0.344,-0.494C0.318,-0.506 0.291,-0.512 0.262,-0.512C0.23,-0.512 0.202,-0.506 0.178,-0.493C0.154,-0.481 0.135,-0.464 0.119,-0.442C0.104,-0.421 0.092,-0.395 0.085,-0.367C0.077,-0.338 0.074,-0.307 0.074,-0.274L0.074,-0.254C0.074,-0.221 0.077,-0.19 0.085,-0.161C0.092,-0.132 0.104,-0.107 0.119,-0.086C0.135,-0.064 0.155,-0.047 0.178,-0.035C0.202,-0.023 0.231,-0.017 0.263,-0.017Z" style="fill:rgb(34,36,41);fill-rule:nonzero;"/>
                </g>
                <g transform="matrix(76,0,0,76,87.1967,150.29)">
                    <path d="M0.416,-0.099L0.416,-0.372C0.416,-0.401 0.409,-0.426 0.397,-0.447C0.384,-0.468 0.366,-0.484 0.342,-0.495C0.318,-0.506 0.289,-0.512 0.254,-0.512C0.222,-0.512 0.194,-0.506 0.168,-0.495C0.143,-0.484 0.122,-0.468 0.108,-0.449C0.093,-0.429 0.085,-0.407 0.085,-0.383L0.059,-0.384C0.059,-0.404 0.064,-0.424 0.073,-0.442C0.083,-0.461 0.097,-0.477 0.114,-0.492C0.131,-0.506 0.152,-0.517 0.176,-0.526C0.2,-0.534 0.226,-0.538 0.254,-0.538C0.291,-0.538 0.324,-0.532 0.352,-0.52C0.38,-0.507 0.402,-0.489 0.418,-0.464C0.434,-0.439 0.442,-0.408 0.442,-0.371L0.442,-0.106C0.442,-0.088 0.443,-0.069 0.446,-0.049C0.448,-0.03 0.451,-0.015 0.456,-0.004L0.456,-0L0.425,-0C0.422,-0.013 0.42,-0.028 0.418,-0.046C0.416,-0.064 0.416,-0.082 0.416,-0.099ZM0.427,-0.295L0.428,-0.268L0.291,-0.268C0.256,-0.268 0.226,-0.265 0.199,-0.258C0.172,-0.251 0.149,-0.242 0.13,-0.23C0.111,-0.218 0.097,-0.204 0.086,-0.187C0.076,-0.17 0.071,-0.152 0.071,-0.132C0.071,-0.111 0.077,-0.091 0.089,-0.074C0.1,-0.056 0.116,-0.042 0.137,-0.032C0.157,-0.021 0.181,-0.016 0.208,-0.016C0.245,-0.016 0.278,-0.022 0.306,-0.034C0.335,-0.047 0.359,-0.064 0.379,-0.086C0.399,-0.108 0.414,-0.134 0.424,-0.165L0.436,-0.14C0.43,-0.122 0.421,-0.104 0.408,-0.086C0.396,-0.068 0.381,-0.052 0.362,-0.038C0.343,-0.023 0.321,-0.012 0.295,-0.003C0.27,0.005 0.24,0.01 0.208,0.01C0.175,0.01 0.146,0.004 0.122,-0.009C0.097,-0.021 0.078,-0.038 0.065,-0.059C0.052,-0.081 0.045,-0.106 0.045,-0.134C0.045,-0.157 0.05,-0.179 0.062,-0.198C0.073,-0.218 0.089,-0.235 0.11,-0.25C0.131,-0.264 0.156,-0.275 0.187,-0.283C0.217,-0.291 0.251,-0.295 0.289,-0.295L0.427,-0.295Z" style="fill:rgb(34,36,41);fill-rule:nonzero;"/>
                </g>
                <g transform="matrix(76,0,0,76,129.592,150.29)">
                    <path d="M0.11,-0.528L0.11,-0L0.084,-0L0.084,-0.528L0.11,-0.528ZM0.32,-0.533L0.317,-0.509C0.312,-0.51 0.306,-0.511 0.301,-0.511C0.295,-0.512 0.289,-0.512 0.283,-0.512C0.253,-0.512 0.227,-0.506 0.205,-0.494C0.183,-0.482 0.164,-0.465 0.149,-0.444C0.134,-0.423 0.123,-0.399 0.116,-0.371C0.109,-0.344 0.105,-0.314 0.105,-0.283L0.087,-0.282C0.087,-0.319 0.091,-0.353 0.099,-0.384C0.107,-0.416 0.119,-0.443 0.135,-0.466C0.152,-0.489 0.172,-0.506 0.197,-0.519C0.221,-0.532 0.25,-0.538 0.283,-0.538C0.291,-0.538 0.298,-0.538 0.304,-0.537C0.31,-0.536 0.316,-0.534 0.32,-0.533Z" style="fill:rgb(34,36,41);fill-rule:nonzero;"/>
                </g>
                <g transform="matrix(76,0,0,76,159.147,150.29)">
                    <path d="M0.263,-0.528L0.263,-0.501L0.019,-0.501L0.019,-0.528L0.263,-0.528ZM0.116,-0.671L0.143,-0.671L0.143,-0.126C0.143,-0.096 0.147,-0.072 0.154,-0.056C0.161,-0.041 0.171,-0.03 0.183,-0.025C0.196,-0.019 0.209,-0.017 0.223,-0.017C0.233,-0.017 0.242,-0.017 0.25,-0.018C0.257,-0.019 0.266,-0.02 0.275,-0.021L0.279,0.004C0.272,0.006 0.263,0.008 0.251,0.009C0.24,0.009 0.231,0.01 0.224,0.01C0.202,0.01 0.182,0.006 0.166,-0.002C0.15,-0.01 0.138,-0.024 0.129,-0.044C0.121,-0.064 0.116,-0.091 0.116,-0.126L0.116,-0.671Z" style="fill:rgb(34,36,41);fill-rule:nonzero;"/>
                </g>
                <g transform="matrix(76,0,0,76,183.194,150.29)">
                </g>
            </g>
        </g>
    </g>
</svg>
